<svg width="33" height="29" viewBox="0 0 33 29" fill="none" xmlns="http://www.w3.org/2000/svg">
<path d="M9.72295 13.3541H7.07475C3.87043 13.3541 2.10938 11.8129 2.10938 9.00861V6.69101C2.10938 3.88672 3.87043 2.34552 7.07475 2.34552H9.72295C12.9273 2.34552 14.6883 3.88672 14.6883 6.69101V9.00861C14.6883 11.8129 12.9273 13.3541 9.72295 13.3541ZM7.07475 4.08372C4.98267 4.08372 4.09553 4.86011 4.09553 6.69101V9.00861C4.09553 10.8395 4.98267 11.6159 7.07475 11.6159H9.72295C11.815 11.6159 12.7022 10.8395 12.7022 9.00861V6.69101C12.7022 4.86011 11.815 4.08372 9.72295 4.08372H7.07475Z" fill="black"/>
<path d="M25.6124 13.3541H22.9642C19.7598 13.3541 17.9988 11.8129 17.9988 9.00861V6.69101C17.9988 3.88672 19.7598 2.34552 22.9642 2.34552H25.6124C28.8167 2.34552 30.5777 3.88672 30.5777 6.69101V9.00861C30.5777 11.8129 28.8167 13.3541 25.6124 13.3541ZM22.9642 4.08372C20.8721 4.08372 19.9849 4.86011 19.9849 6.69101V9.00861C19.9849 10.8395 20.8721 11.6159 22.9642 11.6159H25.6124C27.7044 11.6159 28.5916 10.8395 28.5916 9.00861V6.69101C28.5916 4.86011 27.7044 4.08372 25.6124 4.08372H22.9642Z" fill="black"/>
<path d="M25.6124 27.2597H22.9642C19.7598 27.2597 17.9988 25.7185 17.9988 22.9142V20.5966C17.9988 17.7923 19.7598 16.2511 22.9642 16.2511H25.6124C28.8167 16.2511 30.5777 17.7923 30.5777 20.5966V22.9142C30.5777 25.7185 28.8167 27.2597 25.6124 27.2597ZM22.9642 17.9893C20.8721 17.9893 19.9849 18.7657 19.9849 20.5966V22.9142C19.9849 24.7451 20.8721 25.5215 22.9642 25.5215H25.6124C27.7044 25.5215 28.5916 24.7451 28.5916 22.9142V20.5966C28.5916 18.7657 27.7044 17.9893 25.6124 17.9893H22.9642Z" fill="black"/>
<path d="M9.72295 27.2597H7.07475C3.87043 27.2597 2.10938 25.7185 2.10938 22.9142V20.5966C2.10938 17.7923 3.87043 16.2511 7.07475 16.2511H9.72295C12.9273 16.2511 14.6883 17.7923 14.6883 20.5966V22.9142C14.6883 25.7185 12.9273 27.2597 9.72295 27.2597ZM7.07475 17.9893C4.98267 17.9893 4.09553 18.7657 4.09553 20.5966V22.9142C4.09553 24.7451 4.98267 25.5215 7.07475 25.5215H9.72295C11.815 25.5215 12.7022 24.7451 12.7022 22.9142V20.5966C12.7022 18.7657 11.815 17.9893 9.72295 17.9893H7.07475Z" fill="black"/>
</svg>
