<svg width="32" height="26" viewBox="0 0 32 26" fill="none" xmlns="http://www.w3.org/2000/svg">
<path d="M28.5709 12.0236V18.397C28.5709 22.6459 27.2468 23.7082 21.9504 23.7082H8.70937C3.41297 23.7082 2.08887 22.6459 2.08887 18.397V7.77468C2.08887 3.52575 3.41297 2.46352 8.70937 2.46352H10.6955C12.6817 2.46352 13.1186 2.9309 13.8734 3.73819L15.8595 5.86266C16.3627 6.39377 16.654 6.71244 17.9781 6.71244H21.9504C27.2468 6.71244 28.5709 7.77468 28.5709 12.0236Z" stroke="#787486" stroke-miterlimit="10"/>
<path d="M10.6953 2.46352H22.6122C25.2604 2.46352 26.5845 3.52575 26.5845 5.65021V7.11609" stroke="#787486" stroke-miterlimit="10" stroke-linecap="round" stroke-linejoin="round"/>
<path d="M18.64 16.2725H12.0195" stroke="#787486" stroke-miterlimit="10" stroke-linecap="round" stroke-linejoin="round"/>
</svg>
