<svg width="33" height="29" viewBox="0 0 33 29" fill="none" xmlns="http://www.w3.org/2000/svg">
<path d="M22.9929 22.2794H17.6965L11.8042 25.7094C10.9303 26.2193 9.75185 25.6747 9.75185 24.7477V22.2794C5.77955 22.2794 3.13135 19.9618 3.13135 16.4854V9.53258C3.13135 6.05618 5.77955 3.73859 9.75185 3.73859H22.9929C26.9652 3.73859 29.6134 6.05618 29.6134 9.53258V16.4854C29.6134 19.9618 26.9652 22.2794 22.9929 22.2794Z" stroke="#787486" stroke-width="1.5" stroke-miterlimit="10" stroke-linecap="round" stroke-linejoin="round"/>
<path d="M16.3723 14.0867V13.8434C16.3723 13.0554 16.9284 12.6382 17.4846 12.3021C18.0274 11.9777 18.5703 11.5605 18.5703 10.7957C18.5703 9.72962 17.5905 8.87207 16.3723 8.87207C15.1541 8.87207 14.1743 9.72962 14.1743 10.7957" stroke="#787486" stroke-width="1.5" stroke-linecap="round" stroke-linejoin="round"/>
<path d="M16.3663 16.8562H16.3782" stroke="#787486" stroke-width="1.5" stroke-linecap="round" stroke-linejoin="round"/>
</svg>
