<svg width="33" height="29" viewBox="0 0 33 29" fill="none" xmlns="http://www.w3.org/2000/svg">
<path d="M11.7092 22.6953H11.0471C5.75074 22.6953 3.10254 21.5365 3.10254 15.7425V9.94849C3.10254 5.31329 5.75074 2.9957 11.0471 2.9957H21.64C26.9364 2.9957 29.5846 5.31329 29.5846 9.94849V15.7425C29.5846 20.3777 26.9364 22.6953 21.64 22.6953H20.9779C20.5674 22.6953 20.1702 22.8691 19.9186 23.1588L17.9325 25.4764C17.0586 26.4961 15.6285 26.4961 14.7546 25.4764L12.7685 23.1588C12.5566 22.9039 12.0667 22.6953 11.7092 22.6953Z" stroke="#787486" stroke-width="1.5" stroke-miterlimit="10" stroke-linecap="round" stroke-linejoin="round"/>
<path d="M21.6352 13.4249H21.6471" stroke="#787486" stroke-width="2" stroke-linecap="round" stroke-linejoin="round"/>
<path d="M16.3376 13.4249H16.3495" stroke="#787486" stroke-width="2" stroke-linecap="round" stroke-linejoin="round"/>
<path d="M11.0398 13.4249H11.0517" stroke="#787486" stroke-width="2" stroke-linecap="round" stroke-linejoin="round"/>
</svg>
