<svg width="32" height="29" viewBox="0 0 32 29" fill="none" xmlns="http://www.w3.org/2000/svg">
<path d="M15.9557 4.29486C11.5729 4.29486 8.01107 7.41203 8.01107 11.2477V14.5966C8.01107 15.3034 7.6668 16.3811 7.25633 16.9837L5.73362 19.197C4.7935 20.5644 5.44231 22.0824 7.16364 22.5923C12.8705 24.261 19.0276 24.261 24.7345 22.5923C26.3366 22.1288 27.0384 20.4717 26.1645 19.197L24.6418 16.9837C24.2445 16.3811 23.9003 15.3034 23.9003 14.5966V11.2477C23.9003 7.42362 20.3252 4.29486 15.9557 4.29486Z" stroke="#787486" stroke-width="1.5" stroke-miterlimit="10" stroke-linecap="round"/>
<path d="M18.4053 4.63086C17.9948 4.52657 17.5711 4.44545 17.1341 4.3991C15.863 4.26005 14.6448 4.34116 13.5061 4.63086C13.8901 3.77335 14.8434 3.17078 15.9557 3.17078C17.0679 3.17078 18.0213 3.77335 18.4053 4.63086Z" stroke="#787486" stroke-width="1.5" stroke-miterlimit="10" stroke-linecap="round" stroke-linejoin="round"/>
<path d="M19.928 23.0094C19.928 24.9214 18.1405 26.4858 15.9557 26.4858C14.8699 26.4858 13.8636 26.0918 13.1486 25.4661C12.4336 24.8403 11.9834 23.9596 11.9834 23.0094" stroke="#787486" stroke-width="1.5" stroke-miterlimit="10"/>
<circle cx="18.04" cy="4.92273" r="3" fill="#D8727D"/>
</svg>
