<svg width="33" height="29" viewBox="0 0 33 29" fill="none" xmlns="http://www.w3.org/2000/svg">
<path d="M12.5831 13.1541C12.4506 13.1425 12.2917 13.1425 12.1461 13.1541C8.99474 13.0614 6.49219 10.8017 6.49219 8.02061C6.49219 5.18156 9.11391 2.87555 12.3712 2.87555C15.6152 2.87555 18.2502 5.18156 18.2502 8.02061C18.237 10.8017 15.7344 13.0614 12.5831 13.1541Z" stroke="#787486" stroke-width="1.5" stroke-linecap="round" stroke-linejoin="round"/>
<path d="M22.1829 5.19315C24.7516 5.19315 26.8172 7.01246 26.8172 9.24894C26.8172 11.4391 24.8311 13.2236 22.355 13.3047C22.2491 13.2931 22.1299 13.2931 22.0107 13.3047" stroke="#787486" stroke-width="1.5" stroke-linecap="round" stroke-linejoin="round"/>
<path d="M5.96257 17.4301C2.75825 19.3073 2.75825 22.3665 5.96257 24.2322C9.60385 26.3644 15.5755 26.3644 19.2168 24.2322C22.4211 22.3549 22.4211 19.2957 19.2168 17.4301C15.5888 15.3094 9.61709 15.3094 5.96257 17.4301Z" stroke="#787486" stroke-width="1.5" stroke-linecap="round" stroke-linejoin="round"/>
<path d="M24.7383 23.7339C25.6916 23.5601 26.592 23.224 27.3335 22.7258C29.3991 21.37 29.3991 19.1335 27.3335 17.7777C26.6053 17.291 25.7181 16.9665 24.778 16.7811" stroke="#787486" stroke-width="1.5" stroke-linecap="round" stroke-linejoin="round"/>
</svg>
